<?xml version="1.0" standalone="no"?>
<!DOCTYPE svg PUBLIC "-//W3C//DTD SVG 20010904//EN"
 "http://www.w3.org/TR/2001/REC-SVG-20010904/DTD/svg10.dtd">
<svg version="1.0" xmlns="http://www.w3.org/2000/svg"
 width="705.000000pt" height="705.000000pt" viewBox="0 0 705.000000 705.000000"
 preserveAspectRatio="xMidYMid meet">
<metadata>
Created by potrace 1.14, written by Peter Selinger 2001-2017
</metadata>
<g transform="translate(0.000000,705.000000) scale(0.100000,-0.100000)"
fill="#000000" stroke="none">
<path d="M5940 7012 c-26 -9 -93 -84 -142 -157 -25 -38 -71 -99 -103 -135 -31
-36 -71 -87 -90 -115 -38 -58 -70 -89 -139 -135 -91 -61 -116 -97 -185 -262
-74 -177 -168 -371 -211 -435 -17 -24 -30 -46 -30 -48 0 -9 -64 -110 -97 -153
-35 -46 -67 -112 -89 -179 -12 -40 -12 -44 7 -54 17 -8 47 -2 153 35 224 77
227 67 41 -124 -253 -260 -417 -393 -585 -473 -214 -101 -261 -122 -380 -167
-63 -23 -120 -47 -126 -52 -38 -29 -283 -114 -457 -158 -223 -56 -264 -65
-352 -75 -81 -10 -199 -45 -347 -103 -118 -48 -518 -185 -643 -222 -213 -63
-373 -117 -457 -155 -91 -42 -132 -52 -280 -70 -53 -6 -199 -75 -293 -139
-100 -67 -177 -160 -314 -375 -91 -145 -143 -252 -176 -366 -46 -158 -54 -250
-51 -605 2 -219 -1 -356 -9 -420 -7 -53 -16 -122 -19 -154 -4 -33 -9 -74 -12
-91 -30 -190 -13 -346 45 -416 66 -79 193 -19 340 161 15 19 20 21 21 9 0 -17
-27 -49 -70 -84 -68 -56 -73 -68 -85 -175 -3 -36 -8 -76 -10 -90 -2 -14 -6
-63 -10 -110 -3 -47 -8 -105 -10 -130 -2 -25 -7 -74 -10 -110 -16 -174 -24
-237 -41 -305 -41 -162 -52 -212 -54 -240 -5 -68 1 -95 22 -115 l22 -20 2978
0 2978 0 0 34 c0 46 -22 96 -87 196 -69 105 -99 133 -210 194 -49 27 -115 68
-148 91 -75 52 -115 73 -235 126 -188 82 -206 88 -278 105 -87 21 -76 -4 -126
294 -29 169 -31 149 34 412 32 133 61 257 64 273 3 17 14 73 25 125 11 52 22
106 25 120 4 22 38 205 51 270 2 14 7 36 10 50 25 119 46 264 52 365 3 55 11
114 18 130 7 17 48 73 92 126 142 171 128 127 128 405 0 285 1 289 73 249 53
-29 71 -31 73 -7 5 62 5 101 -2 136 -23 130 -33 275 -19 310 5 13 20 26 35 30
15 4 30 17 36 33 15 41 13 202 -6 378 -2 22 -7 72 -10 110 -4 39 -8 81 -10 94
-8 45 -8 158 -1 170 5 8 16 5 36 -9 72 -51 91 -23 86 123 -4 105 -5 110 -58
270 -59 176 -76 294 -103 697 -19 275 -19 422 -1 500 8 36 17 79 20 95 3 17 8
41 11 55 3 14 9 67 12 117 7 108 -1 118 -61 82 -31 -18 -41 -20 -62 -10 -38
17 -52 73 -54 212 0 35 -2 37 -47 49 -67 17 -76 18 -93 12z m-2820 -4056 c96
-9 171 -30 236 -67 54 -30 105 -43 214 -54 240 -23 338 -62 569 -224 194 -136
223 -147 326 -125 33 7 82 13 108 13 45 1 49 -1 62 -33 22 -53 28 -119 27
-294 -1 -184 -8 -299 -23 -387 -20 -116 -122 -430 -177 -545 -32 -67 -36 -83
-35 -155 0 -62 7 -100 31 -170 36 -105 44 -154 31 -201 -9 -29 -20 -39 -82
-68 -40 -20 -101 -53 -137 -76 -68 -43 -143 -70 -194 -70 -18 0 -55 16 -95 42
-62 41 -69 43 -142 43 l-77 0 -56 50 c-79 69 -145 115 -165 115 -24 0 -58 26
-74 58 -46 91 -156 286 -188 334 -21 31 -59 73 -85 95 -152 126 -178 163 -177
248 1 28 13 82 27 120 24 68 30 91 42 165 9 61 12 73 45 175 38 121 46 225 21
270 -83 150 -142 299 -142 358 0 10 -19 67 -42 125 -67 171 -57 256 31 264 20
2 38 3 41 2 3 -1 39 -5 80 -8z m2132 -753 c26 -29 48 -88 48 -130 0 -21 -12
-96 -26 -168 -14 -71 -27 -141 -30 -155 -14 -69 -71 -292 -110 -428 -62 -217
-62 -241 11 -352 49 -74 84 -169 77 -206 -7 -37 -42 -48 -192 -59 -41 -3 -93
-9 -115 -14 -25 -7 -44 -6 -51 0 -20 16 -56 169 -59 249 -3 72 8 154 35 250 7
25 14 52 16 60 10 47 51 171 122 375 44 127 106 307 137 400 31 94 63 180 71
193 16 24 34 20 66 -15z m-3917 -145 c-2 -7 -6 -38 -10 -68 -3 -30 -11 -73
-16 -95 -6 -22 -13 -51 -14 -65 -7 -57 -17 -150 -17 -157 0 -22 -24 -44 -80
-73 -35 -18 -83 -44 -108 -59 l-45 -26 36 50 c48 67 139 220 139 234 0 6 3 11
8 11 4 0 16 30 26 68 18 62 73 192 82 192 2 0 2 -6 -1 -12z m961 -120 c40 -30
55 -48 140 -160 115 -150 118 -157 110 -258 -4 -47 -11 -104 -15 -128 -13 -65
-6 -130 16 -160 11 -15 42 -41 69 -59 127 -82 255 -199 369 -337 42 -51 156
-211 168 -236 4 -8 27 -46 51 -85 69 -109 59 -116 -255 -180 -8 -2 -40 -11
-70 -20 -76 -23 -140 -30 -148 -16 -4 6 -4 43 1 82 6 47 5 76 -2 84 -21 25
-120 1 -315 -75 -118 -46 -226 -73 -403 -100 -125 -19 -182 -25 -364 -35 -127
-7 -159 -17 -327 -99 -146 -72 -177 -80 -206 -56 -34 28 -136 272 -130 310 5
25 12 62 35 176 32 160 82 258 179 354 42 41 114 105 160 140 47 36 89 70 95
75 6 6 52 44 101 85 110 91 269 247 361 355 74 87 83 95 170 170 85 72 141
133 154 166 15 35 19 35 56 7z"/>
</g>
</svg>
